<svg width="16" height="16" viewBox="0 0 16 16" fill="none" xmlns="http://www.w3.org/2000/svg">
<path d="M8.00164 3.36988e-05C7.82546 -0.000435752 7.64959 0.00537824 7.47394 0.0165729C7.2983 0.0281287 7.12315 0.0451373 6.94852 0.0683572C6.77392 0.0911798 6.60051 0.119744 6.42764 0.154231C6.25514 0.189079 6.08368 0.228838 5.91395 0.274953C5.74383 0.320526 5.57551 0.37184 5.40878 0.42868C5.24234 0.485917 5.07789 0.54803 4.91514 0.615523C4.75274 0.683485 4.5928 0.756792 4.43496 0.835082C4.27729 0.9133 4.12259 0.996863 3.97027 1.08581C3.81821 1.17435 3.66928 1.26774 3.52324 1.36611C3.37732 1.46484 3.23464 1.56765 3.09546 1.67544C2.95651 1.78359 2.82112 1.89572 2.68932 2.01247C2.55765 2.12962 2.43 2.2507 2.30621 2.3759C2.18238 2.50106 2.06296 2.6302 1.94791 2.76341C1.83282 2.89663 1.7221 3.03346 1.61611 3.17426C1.50994 3.31459 1.40854 3.45806 1.31198 3.60561C1.21523 3.7527 1.12373 3.90292 1.03709 4.05618C0.950354 4.20955 0.868814 4.36551 0.792437 4.52379C0.716133 4.6825 0.645101 4.84381 0.579269 5.007C0.513438 5.17016 0.453203 5.33555 0.39853 5.50278C0.343676 5.67038 0.294492 5.83938 0.250797 6.00968C0.207354 6.18042 0.169257 6.35209 0.137117 6.52507C0.104869 6.69801 0.078291 6.87239 0.0573462 7.04717C0.0365458 7.22156 0.0215233 7.3972 0.0124593 7.57285C0.00321465 7.74904 -0.000107629 7.92469 0.00234797 8.10088C0.00476745 8.27692 0.0131815 8.45264 0.0271206 8.62829C0.0412764 8.80347 0.0609935 8.97828 0.0866689 9.15263C0.1122 9.32691 0.143798 9.49996 0.180812 9.67203C0.217827 9.84414 0.260403 10.0149 0.308792 10.1844C0.357146 10.3533 0.410916 10.5209 0.470465 10.6868C0.530013 10.8526 0.594834 11.0158 0.664999 11.1776C0.7352 11.339 0.810637 11.4977 0.891456 11.6541C0.972165 11.8106 1.05808 11.9644 1.14904 12.115L0.0210539 15.4985C0.0162871 15.5123 0.0122787 15.5271 0.00931754 15.5418C0.00639249 15.5566 0.00408134 15.5713 0.00285354 15.5865C0.00144518 15.6013 0.00126461 15.6165 0.00162574 15.6312C0.0021674 15.6464 0.00357577 15.6612 0.00603137 15.6759C0.00812586 15.6911 0.011412 15.7059 0.015276 15.7202C0.0194649 15.7349 0.0241595 15.7488 0.0299374 15.7631C0.0355347 15.777 0.0419626 15.7904 0.0493294 15.8037C0.0566601 15.8167 0.0646769 15.8292 0.0734159 15.8413C0.0823355 15.8538 0.0919412 15.8655 0.102053 15.8762C0.112164 15.8874 0.122997 15.8977 0.134336 15.9079C0.145712 15.9178 0.157556 15.9267 0.170159 15.9347C0.182546 15.9432 0.195654 15.9513 0.209088 15.958C0.222377 15.9647 0.236136 15.9705 0.250147 15.9758C0.264267 15.9812 0.278567 15.9857 0.293409 15.9893C0.307926 15.9929 0.322587 15.9956 0.33761 15.9969C0.352451 15.9986 0.367474 16 0.382496 16C0.423844 16 0.464037 15.9933 0.503146 15.9799L3.88613 14.8525C4.0178 14.9312 4.15134 15.0067 4.28719 15.0779C4.42322 15.1489 4.56099 15.2164 4.7007 15.2799C4.84057 15.3433 4.98202 15.4028 5.12498 15.4578C5.26824 15.5132 5.41279 15.5642 5.55894 15.6111C5.70508 15.6581 5.85231 15.7005 6.00087 15.7394C6.14947 15.7778 6.29894 15.8118 6.44945 15.8418C6.59997 15.8713 6.75138 15.8972 6.90312 15.9178C7.05519 15.9392 7.20765 15.9562 7.36062 15.9683C7.51363 15.9808 7.66671 15.9884 7.82018 15.992C7.97355 15.9956 8.12681 15.9947 8.28028 15.9897C8.43365 15.9844 8.58655 15.9745 8.73937 15.9602C8.89216 15.9464 9.04462 15.928 9.19622 15.9048C9.34785 15.882 9.49898 15.8548 9.64914 15.8235C9.79925 15.7917 9.94829 15.756 10.0965 15.7157C10.2446 15.6755 10.3914 15.6312 10.5371 15.5825C10.6825 15.5338 10.8265 15.4815 10.9691 15.4243C11.1116 15.3675 11.2522 15.3067 11.3913 15.2414C11.5302 15.1766 11.6671 15.1078 11.8023 15.0349C11.9374 14.962 12.0702 14.8852 12.2009 14.8047C12.3314 14.7242 12.4598 14.6402 12.5855 14.5521C12.7111 14.4645 12.8343 14.3728 12.955 14.2777C13.0755 14.1829 13.1931 14.0846 13.3079 13.9827C13.4227 13.8807 13.5344 13.7761 13.6432 13.6679C13.7522 13.5593 13.8577 13.4485 13.9602 13.334C14.0625 13.2196 14.1615 13.1029 14.2572 12.9827C14.3529 12.8628 14.445 12.7399 14.5336 12.6147C14.6222 12.4896 14.7072 12.3617 14.7884 12.2317C14.8696 12.1016 14.9471 11.9693 15.0206 11.8343C15.0943 11.6997 15.1641 11.5634 15.2296 11.4248C15.2955 11.2858 15.3573 11.1454 15.4149 11.0033C15.4727 10.8611 15.5261 10.7172 15.5756 10.5719C15.6249 10.4266 15.6702 10.2804 15.7112 10.1325C15.7521 9.9845 15.7887 9.83565 15.8213 9.68589C15.8538 9.53571 15.8817 9.38505 15.9053 9.23316C15.9292 9.08156 15.9483 8.9295 15.9634 8.77667C15.9784 8.62425 15.9889 8.47095 15.9951 8.31805C16.0013 8.16422 16.003 8.01092 16.0003 7.85766C15.9976 7.7043 15.9905 7.551 15.9791 7.39811C15.9675 7.24521 15.9517 7.09231 15.9314 6.94032C15.9111 6.78832 15.8864 6.63683 15.8573 6.48614C15.8286 6.33555 15.7952 6.18576 15.7577 6.03695C15.72 5.88856 15.678 5.74094 15.6321 5.5944C15.5858 5.44825 15.5355 5.3029 15.4813 5.1599C15.4267 5.01596 15.3683 4.87426 15.3055 4.73436C15.243 4.59443 15.1764 4.45583 15.1058 4.31994C15.0353 4.18358 14.9611 4.04953 14.8827 3.91762C14.8045 3.7853 14.7225 3.6561 14.6367 3.52833C14.5509 3.40129 14.4617 3.2766 14.3686 3.15458C14.2759 3.03252 14.1795 2.91317 14.0796 2.79653C13.9799 2.67985 13.8768 2.56624 13.7706 2.45538C13.6643 2.34502 13.5547 2.23723 13.4423 2.13312C13.3297 2.02905 13.2144 1.92797 13.096 1.83007C12.9776 1.73257 12.8565 1.63835 12.733 1.54757C12.609 1.45678 12.483 1.36961 12.3541 1.28605C12.2254 1.20292 12.0942 1.12333 11.961 1.04735C11.8276 0.971368 11.6923 0.899433 11.5547 0.831038C11.4172 0.763075 11.2779 0.699085 11.1369 0.638743C10.9956 0.578833 10.853 0.523004 10.7085 0.471112C10.5641 0.419255 10.4181 0.37101 10.2709 0.32764C10.1238 0.284306 9.97566 0.244908 9.82616 0.21006C9.67676 0.175212 9.52654 0.144336 9.3753 0.117975C9.22424 0.0916492 9.07236 0.0701989 8.91989 0.0522513C8.76747 0.0348815 8.61475 0.0214841 8.46156 0.0129617C8.3082 0.00400599 8.15512 -0.000435752 8.00164 3.36988e-05ZM8.00164 15.2379C7.66136 15.2379 7.32256 15.2133 6.98553 15.165C6.64868 15.1171 6.31692 15.0456 5.98989 14.9504C5.66316 14.8552 5.34483 14.7372 5.03456 14.5968C4.72443 14.4569 4.42586 14.2956 4.13844 14.1127C4.07626 14.0734 4.00837 14.0537 3.93463 14.0537C3.89332 14.0537 3.85313 14.0604 3.81402 14.0734L0.984552 15.0166L1.92801 12.1874C1.94581 12.1329 1.95137 12.0775 1.9444 12.0207C1.93761 11.9639 1.91894 11.9111 1.88836 11.8629C1.81783 11.7507 1.75023 11.6372 1.68581 11.521C1.62135 11.4051 1.56025 11.288 1.50214 11.1686C1.44433 11.0493 1.38965 10.9286 1.3383 10.8066C1.28699 10.6841 1.239 10.5607 1.19447 10.436C1.14994 10.3108 1.10888 10.1852 1.07115 10.0583C1.03363 9.93088 0.999574 9.80304 0.968843 9.67383C0.938256 9.54513 0.911209 9.41545 0.887808 9.28495C0.864227 9.1544 0.84451 9.02343 0.82826 8.89205C0.812046 8.7606 0.799479 8.62876 0.790415 8.49637C0.781459 8.3641 0.776042 8.23171 0.774309 8.0994C0.772576 7.96665 0.77449 7.83437 0.780051 7.7021C0.785468 7.56931 0.794748 7.4374 0.80746 7.30559C0.820424 7.17327 0.836855 7.0423 0.856897 6.91128C0.876975 6.78031 0.900556 6.64976 0.92782 6.52016C0.954868 6.39008 0.985599 6.26178 1.01998 6.13344C1.05421 6.00524 1.09213 5.8782 1.13333 5.75267C1.17468 5.62657 1.21921 5.50188 1.26745 5.37845C1.31562 5.25466 1.36694 5.133 1.42179 5.01235C1.47679 4.89162 1.53475 4.77282 1.59621 4.65477C1.65749 4.53719 1.7221 4.42181 1.78988 4.30791C1.85763 4.19384 1.92855 4.08218 2.0024 3.97215C2.07621 3.86179 2.15306 3.75407 2.23286 3.64804C2.31281 3.54256 2.39526 3.43892 2.48081 3.33788C2.56639 3.23637 2.65476 3.13764 2.74572 3.04151C2.83669 2.94488 2.93011 2.85106 3.02631 2.75991C3.12219 2.66866 3.22084 2.57971 3.32192 2.49431C3.42267 2.40851 3.52606 2.32531 3.63154 2.24535C3.73703 2.16493 3.84475 2.08802 3.9546 2.0133C4.06423 1.93909 4.17618 1.8681 4.28986 1.80013C4.40332 1.73217 4.51892 1.66692 4.63628 1.60527C4.75343 1.54349 4.87234 1.48499 4.99281 1.42952C5.11332 1.37459 5.23519 1.32274 5.35848 1.27402C5.48177 1.22567 5.60642 1.18056 5.73213 1.13896C5.85805 1.09736 5.98484 1.05898 6.11282 1.02413C6.24062 0.98964 6.36932 0.958332 6.49907 0.931139C6.6286 0.902936 6.75886 0.879283 6.88984 0.858771C7.02081 0.838152 7.1523 0.821576 7.28392 0.808179C7.41598 0.794781 7.54812 0.785356 7.68047 0.779145C7.81285 0.773331 7.94517 0.771128 8.07791 0.772392C8.21048 0.773331 8.34286 0.778712 8.47496 0.787198C8.60717 0.79572 8.73919 0.808179 8.87064 0.823815C9.00237 0.839524 9.13346 0.859133 9.2639 0.881955C9.39433 0.905175 9.52423 0.931609 9.65311 0.962015C9.78217 0.991879 9.91037 1.0259 10.0377 1.06306C10.1648 1.10014 10.2908 1.1408 10.4159 1.18501C10.5407 1.22928 10.6645 1.27662 10.7869 1.32765C10.9091 1.37856 11.03 1.43266 11.1494 1.49033C11.2689 1.54804 11.3865 1.60885 11.5025 1.67273C11.6186 1.73708 11.7326 1.80411 11.845 1.87438C11.9573 1.94501 12.0677 2.01785 12.1759 2.09477C12.2842 2.17075 12.3904 2.25027 12.4942 2.33253C12.5982 2.41472 12.6999 2.49976 12.7989 2.5873C12.8983 2.67541 12.9952 2.76619 13.0893 2.85864C13.1837 2.9521 13.2753 3.04769 13.3643 3.14616C13.4535 3.24395 13.5397 3.34452 13.6232 3.4478C13.7068 3.55022 13.7873 3.65563 13.865 3.76295C13.9427 3.87028 14.0176 3.97973 14.0892 4.09114C14.1608 4.20243 14.2294 4.31597 14.2949 4.43124C14.3603 4.54614 14.4227 4.66329 14.4818 4.7817C14.5409 4.90058 14.5967 5.02087 14.6491 5.14242C14.7014 5.26401 14.7505 5.3874 14.7963 5.51166C14.842 5.636 14.8841 5.76156 14.9228 5.88856C14.9617 6.01503 14.997 6.14243 15.0287 6.27167C15.0604 6.39987 15.0888 6.52958 15.1134 6.65966C15.1379 6.78973 15.1591 6.92071 15.1766 7.05208C15.194 7.18353 15.2078 7.31537 15.2179 7.44729C15.2283 7.5796 15.2347 7.71188 15.2379 7.84427C15.2408 7.97701 15.2399 8.10929 15.2357 8.24204C15.2314 8.37435 15.2233 8.50627 15.2116 8.63855C15.2001 8.77046 15.1849 8.90231 15.166 9.03332C15.1474 9.1643 15.1249 9.2952 15.0988 9.42488C15.0728 9.55495 15.0433 9.68413 15.01 9.81243C14.977 9.94074 14.9403 10.0681 14.9003 10.1942C14.8601 10.3207 14.8167 10.4459 14.7697 10.5697C14.7225 10.6935 14.6722 10.816 14.6185 10.9371C14.5648 11.0583 14.5077 11.1781 14.4473 11.2961C14.3871 11.4141 14.3236 11.5303 14.2568 11.6447C14.1903 11.7596 14.1205 11.8718 14.0476 11.9827C13.9747 12.0936 13.8988 12.2017 13.8199 12.3086C13.741 12.415 13.6593 12.5191 13.5748 12.621C13.4903 12.7234 13.403 12.8231 13.3127 12.9201C13.2228 13.0176 13.13 13.1123 13.0349 13.2044C12.9396 13.2965 12.8417 13.3859 12.7415 13.4726C12.6415 13.5593 12.539 13.6433 12.4343 13.7243C12.3292 13.8056 12.2224 13.8839 12.1135 13.959C12.0043 14.0341 11.8931 14.1065 11.7801 14.1753C11.6671 14.2446 11.5521 14.3108 11.4355 14.3738C11.3188 14.4364 11.2006 14.4958 11.0805 14.5521C10.9605 14.6085 10.8391 14.6617 10.7161 14.7113C10.5933 14.7609 10.4691 14.8069 10.3437 14.8499C10.2184 14.8928 10.0919 14.9321 9.96428 14.9679C9.8367 15.0036 9.70811 15.0363 9.57886 15.0649C9.44955 15.0935 9.31936 15.1189 9.18864 15.1409C9.05802 15.1623 8.92676 15.1802 8.79491 15.1945C8.66328 15.2093 8.53126 15.22 8.39869 15.2271C8.26649 15.2343 8.13403 15.2379 8.00164 15.2379ZM4.95388 7.99976C4.95388 8.02479 4.95269 8.04985 4.95042 8.07444C4.94782 8.09951 4.94413 8.1241 4.93922 8.14869C4.93453 8.17281 4.92843 8.1974 4.92128 8.22106C4.91391 8.24475 4.90553 8.2684 4.89589 8.29122C4.88646 8.31444 4.87585 8.3368 4.864 8.35919C4.85227 8.3811 4.83955 8.40209 4.82554 8.42307C4.81178 8.44369 4.79694 8.46373 4.78102 8.48298C4.76516 8.50266 4.74852 8.52097 4.73075 8.53844C4.71327 8.55628 4.69475 8.57282 4.67539 8.58893C4.65618 8.60464 4.6361 8.61933 4.6153 8.6332C4.59454 8.64707 4.57327 8.66 4.5512 8.67166C4.52903 8.68376 4.50671 8.69448 4.48367 8.70384C4.4606 8.71315 4.43705 8.72167 4.41325 8.72886C4.38935 8.73601 4.36508 8.74229 4.34081 8.74717C4.31622 8.75208 4.29159 8.75569 4.26679 8.75789C4.24198 8.7606 4.21702 8.76151 4.19203 8.76151C4.16712 8.76151 4.14227 8.7606 4.11746 8.75789C4.09255 8.75569 4.06792 8.75208 4.04343 8.74717C4.01881 8.74229 3.99472 8.73601 3.97099 8.72886C3.94709 8.72167 3.92347 8.71315 3.90047 8.70384C3.87757 8.69448 3.85486 8.68376 3.83287 8.67166C3.81087 8.66 3.78953 8.64707 3.7688 8.6332C3.748 8.61933 3.72807 8.60464 3.70871 8.58893C3.6895 8.57282 3.67101 8.55628 3.65336 8.53844C3.63573 8.52097 3.61898 8.50266 3.60309 8.48298C3.5872 8.46373 3.57236 8.44369 3.55871 8.42307C3.54477 8.40209 3.53184 8.3811 3.52014 8.35919C3.50826 8.3368 3.49779 8.31444 3.48818 8.29122C3.47857 8.2684 3.4702 8.24475 3.46305 8.22106C3.45572 8.1973 3.44958 8.17281 3.44474 8.14869C3.43979 8.1241 3.43614 8.09951 3.43387 8.07444C3.43127 8.04985 3.43018 8.02479 3.43018 7.99976C3.43018 7.9747 3.43127 7.95022 3.43387 7.92516C3.43614 7.9001 3.43979 7.8755 3.44474 7.85138C3.44958 7.82679 3.45572 7.80267 3.46305 7.77854C3.4702 7.75478 3.47857 7.73109 3.48818 7.70838C3.49779 7.68505 3.50826 7.6627 3.52014 7.64089C3.53184 7.6185 3.54477 7.59752 3.55871 7.57643C3.57236 7.55591 3.5872 7.53576 3.60309 7.51655C3.61898 7.49684 3.63573 7.47853 3.65336 7.46116C3.67101 7.44325 3.6895 7.42667 3.70871 7.41107C3.72807 7.39496 3.748 7.38027 3.7688 7.3664C3.78953 7.35253 3.81087 7.3395 3.83287 7.32787C3.85486 7.31584 3.87757 7.30559 3.90047 7.29577C3.92347 7.28634 3.94709 7.27785 3.97099 7.27074C3.99472 7.26352 4.01881 7.25731 4.04343 7.25243C4.06792 7.24741 4.09255 7.24391 4.11746 7.2416C4.14227 7.239 4.16712 7.2381 4.19203 7.2381C4.21702 7.2381 4.24198 7.23893 4.26679 7.2416C4.29159 7.24391 4.31622 7.24741 4.34081 7.25243C4.36508 7.25731 4.38935 7.26352 4.41325 7.27074C4.43705 7.27785 4.4606 7.28634 4.48367 7.29577C4.50671 7.30559 4.52903 7.31584 4.5512 7.32787C4.57327 7.3395 4.59454 7.35253 4.6153 7.3664C4.6361 7.38027 4.65618 7.39496 4.67539 7.41107C4.69475 7.42667 4.71327 7.44325 4.73075 7.46116C4.74852 7.47853 4.76516 7.49684 4.78102 7.51655C4.79694 7.53576 4.81178 7.55591 4.82554 7.57643C4.83955 7.59752 4.85227 7.6185 4.864 7.64089C4.87585 7.6627 4.88646 7.68505 4.89589 7.70838C4.90553 7.73109 4.91391 7.75485 4.92128 7.77854C4.92843 7.80267 4.93453 7.82679 4.93922 7.85138C4.94413 7.8755 4.94782 7.9001 4.95042 7.92516C4.95269 7.95022 4.95388 7.9747 4.95388 7.99976ZM8.76349 7.99976C8.76349 8.02479 8.7623 8.04985 8.75978 8.07444C8.75739 8.09951 8.75371 8.1241 8.7488 8.14869C8.74389 8.17281 8.73778 8.1974 8.73067 8.22106C8.72327 8.24475 8.71496 8.2684 8.70553 8.29122C8.69593 8.31444 8.68528 8.3368 8.67354 8.35919C8.6618 8.3811 8.64895 8.40209 8.63508 8.42307C8.62111 8.44369 8.60634 8.46373 8.59045 8.48298C8.5747 8.50266 8.55798 8.52097 8.54032 8.53844C8.52267 8.55628 8.50418 8.57282 8.48496 8.58893C8.46572 8.60464 8.44567 8.61933 8.42495 8.6332C8.40415 8.64707 8.38262 8.66 8.3606 8.67166C8.3386 8.68376 8.31632 8.69448 8.29303 8.70384C8.27003 8.71315 8.24663 8.72167 8.22268 8.72886C8.19892 8.73601 8.17469 8.74229 8.15003 8.74717C8.1258 8.75208 8.1011 8.75569 8.07632 8.75789C8.05137 8.7606 8.02642 8.76151 8.00164 8.76151C7.97658 8.76151 7.95174 8.7606 7.92686 8.75789C7.9019 8.75569 7.87749 8.75208 7.85308 8.74717C7.82838 8.74229 7.80437 8.73601 7.78042 8.72886C7.75648 8.72167 7.73308 8.71315 7.70997 8.70384C7.68679 8.69448 7.6644 8.68376 7.6424 8.67166C7.62048 8.66 7.59896 8.64707 7.57816 8.6332C7.55761 8.61933 7.53746 8.60464 7.51825 8.58893C7.49893 8.57282 7.48044 8.55628 7.46278 8.53844C7.44513 8.52097 7.42837 8.50266 7.41266 8.48298C7.39677 8.46373 7.38197 8.44369 7.36796 8.42307C7.3543 8.40209 7.34138 8.3811 7.32953 8.35919C7.31783 8.3368 7.30718 8.31444 7.29757 8.29122C7.28815 8.2684 7.27977 8.24475 7.2724 8.22106C7.26525 8.1973 7.25919 8.17281 7.25428 8.14869C7.2494 8.1241 7.24572 8.09951 7.24344 8.07444C7.24081 8.04985 7.23961 8.02479 7.23961 7.99976C7.23961 7.9747 7.24081 7.95022 7.24344 7.92516C7.24572 7.9001 7.2494 7.8755 7.25428 7.85138C7.25919 7.82679 7.26525 7.80267 7.2724 7.77854C7.27977 7.75478 7.28815 7.73109 7.29757 7.70838C7.30718 7.68505 7.31783 7.6627 7.32953 7.64089C7.34138 7.6185 7.3543 7.59752 7.36796 7.57643C7.38197 7.55591 7.39677 7.53576 7.41266 7.51655C7.42837 7.49684 7.44513 7.47853 7.46278 7.46116C7.48044 7.44325 7.49893 7.42667 7.51825 7.41107C7.53746 7.39496 7.55761 7.38027 7.57816 7.3664C7.59896 7.35253 7.62048 7.3395 7.6424 7.32787C7.6644 7.31584 7.68679 7.30559 7.70997 7.29577C7.73308 7.28634 7.75648 7.27785 7.78042 7.27074C7.80437 7.26352 7.82838 7.25731 7.85308 7.25243C7.87749 7.24741 7.9019 7.24391 7.92686 7.2416C7.95174 7.239 7.97658 7.2381 8.00164 7.2381C8.02642 7.2381 8.05137 7.23893 8.07632 7.2416C8.1011 7.24391 8.1258 7.24741 8.15003 7.25243C8.17469 7.25731 8.19892 7.26352 8.22268 7.27074C8.24663 7.27785 8.27003 7.28634 8.29303 7.29577C8.31632 7.30559 8.3386 7.31584 8.3606 7.32787C8.38262 7.3395 8.40415 7.35253 8.42495 7.3664C8.44567 7.38027 8.46572 7.39496 8.48496 7.41107C8.50418 7.42667 8.52267 7.44325 8.54032 7.46116C8.55798 7.47853 8.5747 7.49684 8.59045 7.51655C8.60634 7.53576 8.62111 7.55591 8.63508 7.57643C8.64895 7.59752 8.6618 7.6185 8.67354 7.64089C8.68528 7.6627 8.69593 7.68505 8.70553 7.70838C8.71496 7.73109 8.72327 7.75485 8.73067 7.77854C8.73778 7.80267 8.74389 7.82679 8.7488 7.85138C8.75371 7.8755 8.75739 7.9001 8.75978 7.92516C8.7623 7.95022 8.76349 7.9747 8.76349 7.99976ZM12.5729 7.99976C12.5729 8.02479 12.5718 8.04985 12.5692 8.07444C12.5669 8.09951 12.5632 8.1241 12.5583 8.14869C12.5535 8.17281 12.5474 8.1974 12.5402 8.22106C12.5329 8.24475 12.5245 8.2684 12.515 8.29122C12.5053 8.31444 12.4948 8.3368 12.4832 8.35919C12.4712 8.3811 12.4583 8.40209 12.4445 8.42307C12.4308 8.44369 12.4159 8.46373 12.3999 8.48298C12.3841 8.50266 12.3673 8.52097 12.3499 8.53844C12.3321 8.55628 12.3136 8.57282 12.2944 8.58893C12.275 8.60464 12.2551 8.61933 12.2345 8.6332C12.2136 8.64707 12.1922 8.66 12.1702 8.67166C12.1482 8.68376 12.1255 8.69448 12.1026 8.70384C12.0795 8.71315 12.0561 8.72167 12.0323 8.72886C12.0084 8.73601 11.9842 8.74229 11.9596 8.74717C11.9351 8.75208 11.9105 8.75569 11.8856 8.75789C11.8608 8.7606 11.8359 8.76151 11.8111 8.76151C11.7862 8.76151 11.7612 8.7606 11.7363 8.75789C11.7115 8.75569 11.6868 8.75208 11.6624 8.74717C11.638 8.74229 11.6137 8.73601 11.5899 8.72886C11.566 8.72167 11.5427 8.71315 11.5196 8.70384C11.4964 8.69448 11.474 8.68376 11.4519 8.67166C11.4298 8.66 11.4086 8.64707 11.3878 8.6332C11.367 8.61933 11.3469 8.60464 11.3277 8.58893C11.3084 8.57282 11.2899 8.55628 11.2723 8.53844C11.2544 8.52097 11.2379 8.50266 11.2222 8.48298C11.2061 8.46373 11.1915 8.44369 11.1775 8.42307C11.1638 8.40209 11.1508 8.3811 11.1391 8.35919C11.1274 8.3368 11.1166 8.31444 11.1072 8.29122C11.0976 8.2684 11.0892 8.24475 11.0821 8.22106C11.0746 8.1973 11.0685 8.17281 11.0638 8.14869C11.0589 8.1241 11.0552 8.09951 11.0528 8.07444C11.0504 8.04985 11.0492 8.02479 11.0492 7.99976C11.0492 7.9747 11.0504 7.95022 11.0528 7.92516C11.0552 7.9001 11.0589 7.8755 11.0638 7.85138C11.0685 7.82679 11.0746 7.80267 11.0821 7.77854C11.0892 7.75478 11.0976 7.73109 11.1072 7.70838C11.1166 7.68505 11.1274 7.6627 11.1391 7.64089C11.1508 7.6185 11.1638 7.59752 11.1775 7.57643C11.1915 7.55591 11.2061 7.53576 11.2222 7.51655C11.2379 7.49684 11.2546 7.47853 11.2723 7.46116C11.2899 7.44325 11.3084 7.42667 11.3277 7.41107C11.3469 7.39496 11.367 7.38027 11.3878 7.3664C11.4086 7.35253 11.4298 7.3395 11.452 7.32787C11.474 7.31584 11.4964 7.30559 11.5196 7.29577C11.5427 7.28634 11.566 7.27785 11.5899 7.27074C11.6137 7.26352 11.638 7.25731 11.6624 7.25243C11.6868 7.24741 11.7115 7.24391 11.7363 7.2416C11.7612 7.239 11.7862 7.2381 11.8111 7.2381C11.836 7.2381 11.8608 7.23893 11.8856 7.2416C11.9105 7.24391 11.9351 7.24741 11.9596 7.25243C11.9842 7.25731 12.0084 7.26352 12.0323 7.27074C12.0561 7.27785 12.0795 7.28634 12.1026 7.29577C12.1255 7.30559 12.1482 7.31584 12.1702 7.32787C12.1922 7.3395 12.2136 7.35253 12.2345 7.3664C12.2551 7.38027 12.275 7.39496 12.2944 7.41107C12.3136 7.42667 12.3321 7.44325 12.3499 7.46116C12.3673 7.47853 12.3841 7.49684 12.3999 7.51655C12.4159 7.53576 12.4308 7.55591 12.4445 7.57643C12.4583 7.59752 12.4712 7.6185 12.4832 7.64089C12.4949 7.6627 12.5053 7.68505 12.515 7.70838C12.5245 7.73109 12.5329 7.75485 12.5402 7.77854C12.5474 7.80267 12.5535 7.82679 12.5583 7.85138C12.5633 7.8755 12.5669 7.9001 12.5692 7.92516C12.5718 7.95022 12.5729 7.9747 12.5729 7.99976Z" fill="black"/>
<path d="M8.00018 3.36988e-05C7.82406 -0.000435752 7.64805 0.00537824 7.47248 0.0165729C7.29669 0.0281287 7.12183 0.0451373 6.94705 0.0683572C6.77213 0.0911798 6.59933 0.119744 6.42618 0.154231C6.25367 0.189079 6.08221 0.228838 5.91249 0.274953C5.74236 0.320526 5.57408 0.37184 5.40732 0.42868C5.24081 0.485917 5.0765 0.54803 4.91367 0.615523C4.75102 0.683557 4.59155 0.756611 4.43349 0.835082L4.43313 0.83519C4.27565 0.9133 4.12095 0.996863 3.96881 1.08581C3.81652 1.17446 3.668 1.26756 3.52178 1.36611C3.3756 1.46502 3.23339 1.56743 3.094 1.67544C2.95511 1.78341 2.81959 1.8959 2.68785 2.01247C2.55619 2.12962 2.42857 2.25063 2.30474 2.3759C2.18106 2.50088 2.06138 2.63038 1.94644 2.76341C1.8315 2.89656 1.72053 3.03357 1.61465 3.17426C1.50859 3.31448 1.40697 3.45824 1.31051 3.60561C1.21373 3.7527 1.1223 3.90281 1.03563 4.05618C0.948853 4.20955 0.867349 4.36551 0.790972 4.52379C0.714668 4.6825 0.643672 4.84381 0.577805 5.007C0.511901 5.17026 0.451775 5.33547 0.397065 5.50278C0.342248 5.6703 0.292991 5.83938 0.249332 6.00968C0.20589 6.18049 0.167828 6.35198 0.135652 6.52507C0.103404 6.69801 0.0768262 6.87246 0.0558813 7.04717C0.035081 7.22156 0.0200585 7.3972 0.0109944 7.57285C0.00174981 7.74893 -0.00157247 7.92469 0.000883127 8.10088C0.00330261 8.27699 0.0117167 8.45257 0.0256558 8.62829C0.0398116 8.80347 0.0595286 8.97828 0.0852041 9.15263C0.110735 9.32702 0.142333 9.49992 0.179347 9.67203C0.216326 9.84414 0.258938 10.0149 0.307328 10.1844C0.355681 10.3533 0.409452 10.521 0.469 10.6868C0.528512 10.8525 0.593405 11.0159 0.663534 11.1776C0.733771 11.3391 0.809137 11.4976 0.889991 11.6541L0.890099 11.6543C0.970773 11.8108 1.05661 11.9644 1.14758 12.115L0.019589 15.4985C0.0148223 15.5123 0.0108139 15.527 0.0078527 15.5418V15.5419C0.00489154 15.5566 0.00265261 15.5713 0.00138869 15.5865C-1.96602e-05 15.6013 -0.00020023 15.6165 0.000160892 15.6312C0.000702561 15.6464 0.00211093 15.6612 0.00456653 15.6759C0.00666101 15.691 0.0099833 15.7059 0.0138111 15.7202C0.0180001 15.7349 0.0226946 15.7488 0.0284725 15.7631C0.0340698 15.777 0.0404977 15.7903 0.0478645 15.8037C0.0552313 15.8168 0.0631759 15.8292 0.0719511 15.8413C0.0808707 15.8538 0.0904764 15.8655 0.100588 15.8762C0.110699 15.8873 0.121533 15.8977 0.132872 15.9079L0.133052 15.908C0.144355 15.9178 0.156128 15.9267 0.168694 15.9347L0.168911 15.9349C0.181225 15.9433 0.194262 15.9513 0.207623 15.958L0.207804 15.9581C0.221165 15.9648 0.234598 15.9705 0.248682 15.9758C0.262874 15.9813 0.27703 15.9857 0.291944 15.9893C0.306569 15.9929 0.321014 15.9956 0.336145 15.9969L0.336542 15.9969C0.351203 15.9987 0.366226 16 0.381032 16C0.42238 16 0.462572 15.9933 0.501681 15.9799L3.88467 14.8525C4.01644 14.9313 4.1498 15.0067 4.28572 15.0779C4.4219 15.149 4.55938 15.2163 4.69924 15.2799C4.83892 15.3433 4.98073 15.4029 5.12352 15.4578C5.26641 15.5131 5.41165 15.5643 5.55747 15.6111C5.70333 15.658 5.8511 15.7006 5.99941 15.7394C6.14837 15.7779 6.29711 15.8117 6.44799 15.8418L6.44853 15.8419C6.59901 15.8713 6.74995 15.8972 6.90166 15.9178C7.05369 15.9392 7.20623 15.9562 7.35916 15.9683L7.35956 15.9683C7.51235 15.9808 7.66542 15.9884 7.81872 15.992C7.97169 15.9956 8.1257 15.9947 8.27882 15.9897L8.27929 15.9897C8.43218 15.9844 8.58555 15.9745 8.73791 15.9602C8.89033 15.9464 9.04352 15.928 9.19476 15.9048C9.34646 15.882 9.49745 15.8548 9.64767 15.8235C9.79808 15.7916 9.94653 15.756 10.095 15.7157C10.2431 15.6755 10.3899 15.6313 10.5356 15.5825C10.6809 15.5338 10.8251 15.4815 10.9676 15.4243C11.1104 15.3674 11.2507 15.3068 11.3898 15.2414C11.5287 15.1767 11.6657 15.1077 11.8008 15.0349L11.801 15.0348C11.9361 14.962 12.0688 14.8851 12.1994 14.8047L12.1996 14.8046C12.3298 14.7243 12.4586 14.64 12.584 14.5521C12.7097 14.4646 12.8328 14.3728 12.9535 14.2777C13.0738 14.183 13.1918 14.0845 13.3064 13.9827C13.4214 13.8806 13.5328 13.7763 13.6418 13.6679C13.7506 13.5594 13.8564 13.4483 13.9587 13.334C14.0609 13.2198 14.1602 13.1027 14.2557 12.9827L14.2558 12.9826C14.3516 12.8627 14.4436 12.74 14.5321 12.6147C14.6206 12.4896 14.7058 12.3617 14.7869 12.2317C14.8682 12.1016 14.9457 11.9693 15.0192 11.8343C15.0928 11.6998 15.1627 11.5633 15.2282 11.4248C15.294 11.2859 15.3558 11.1454 15.4134 11.0033C15.4712 10.8611 15.5246 10.7172 15.5741 10.5719L15.5742 10.5718C15.6236 10.4264 15.6687 10.2806 15.7097 10.1325C15.7506 9.98454 15.7873 9.83561 15.8198 9.68589C15.8522 9.53578 15.8802 9.38498 15.9039 9.23316C15.9277 9.08156 15.9469 8.9295 15.9619 8.77667V8.77656C15.9769 8.62425 15.9874 8.47077 15.9936 8.31805C15.9998 8.16433 16.0016 8.01085 15.9988 7.85766C15.9961 7.7043 15.989 7.55093 15.9776 7.39811C15.9661 7.24521 15.9503 7.09231 15.9299 6.94032C15.9097 6.78825 15.8849 6.63691 15.8559 6.48614C15.8271 6.33545 15.7937 6.18587 15.7562 6.03695C15.7185 5.88838 15.6766 5.74112 15.6307 5.5944C15.5844 5.44807 15.5342 5.30312 15.4798 5.1599C15.4254 5.01607 15.3668 4.87415 15.3041 4.73436C15.2417 4.5945 15.1749 4.45583 15.1044 4.31994C15.0338 4.18358 14.9596 4.04953 14.8812 3.91762C14.803 3.78541 14.721 3.65599 14.6352 3.52833C14.5493 3.40111 14.4604 3.27678 14.3671 3.15458C14.2745 3.03263 14.178 2.91317 14.0782 2.79653C13.9785 2.67996 13.8751 2.56624 13.7691 2.45538C13.6629 2.3452 13.5531 2.23723 13.4408 2.13312C13.328 2.02894 13.213 1.92808 13.0945 1.83007C12.9763 1.73275 12.8551 1.63824 12.7316 1.54757C12.6074 1.45671 12.4817 1.36972 12.3526 1.28605C12.2241 1.20302 12.0926 1.12325 11.9595 1.04735C11.8261 0.971368 11.6909 0.899433 11.5533 0.831038C11.4159 0.763075 11.2764 0.699085 11.1354 0.638743C10.9944 0.579014 10.8511 0.522896 10.7071 0.471112C10.5624 0.419183 10.4169 0.371118 10.2694 0.32764C10.1226 0.284378 9.97398 0.244908 9.82469 0.21006C9.6754 0.175212 9.52489 0.144336 9.37383 0.117975C9.22278 0.0916492 9.07089 0.0701989 8.91843 0.0522513C8.766 0.0348815 8.61329 0.0214841 8.4601 0.0129617C8.30662 0.00400599 8.15384 -0.000435752 8.00018 3.36988e-05ZM8.00018 3.36988e-05C8.15384 -0.000435752 8.30662 0.00400599 8.4601 0.0129617C8.61329 0.0214841 8.766 0.0348815 8.91843 0.0522513C9.07089 0.0701989 9.22278 0.0916492 9.37383 0.117975C9.52489 0.144336 9.6754 0.175212 9.82469 0.21006C9.97398 0.244908 10.1226 0.284378 10.2694 0.32764C10.4169 0.371118 10.5624 0.419183 10.7071 0.471112C10.8511 0.522896 10.9944 0.579014 11.1354 0.638743C11.2764 0.699085 11.4159 0.763075 11.5533 0.831038C11.6909 0.899433 11.8261 0.971368 11.9595 1.04735C12.0926 1.12325 12.2241 1.20302 12.3526 1.28605C12.4817 1.36972 12.6074 1.45671 12.7316 1.54757C12.8551 1.63824 12.9763 1.73275 13.0945 1.83007C13.213 1.92808 13.328 2.02894 13.4408 2.13312C13.5531 2.23723 13.6629 2.3452 13.7691 2.45538C13.8751 2.56624 13.9785 2.67996 14.0782 2.79653C14.178 2.91317 14.2745 3.03263 14.3671 3.15458C14.4604 3.27678 14.5493 3.40111 14.6352 3.52833C14.721 3.65599 14.803 3.78541 14.8812 3.91762C14.9596 4.04953 15.0338 4.18358 15.1044 4.31994C15.1749 4.45583 15.2417 4.5945 15.3041 4.73436C15.3668 4.87415 15.4254 5.01607 15.4798 5.1599C15.5342 5.30312 15.5844 5.44807 15.6307 5.5944C15.6766 5.74112 15.7185 5.88838 15.7562 6.03695C15.7937 6.18587 15.8271 6.33545 15.8559 6.48614C15.8849 6.63691 15.9097 6.78825 15.9299 6.94032C15.9503 7.09231 15.9661 7.24521 15.9776 7.39811C15.989 7.55093 15.9961 7.7043 15.9988 7.85766C16.0016 8.01085 15.9998 8.16433 15.9936 8.31805C15.9874 8.47077 15.9769 8.62425 15.9619 8.77656V8.77667C15.9469 8.9295 15.9277 9.08156 15.9039 9.23316C15.8802 9.38498 15.8522 9.53578 15.8198 9.68589C15.7873 9.83561 15.7506 9.98454 15.7097 10.1325C15.6687 10.2806 15.6236 10.4264 15.5742 10.5718L15.5741 10.5719C15.5246 10.7172 15.4712 10.8611 15.4134 11.0033C15.3558 11.1454 15.294 11.2859 15.2282 11.4248C15.1627 11.5633 15.0928 11.6998 15.0192 11.8343C14.9457 11.9693 14.8682 12.1016 14.7869 12.2317C14.7058 12.3617 14.6206 12.4896 14.5321 12.6147C14.4436 12.74 14.3516 12.8627 14.2558 12.9826L14.2557 12.9827C14.1602 13.1027 14.0609 13.2198 13.9587 13.334C13.8564 13.4483 13.7506 13.5594 13.6418 13.6679C13.5328 13.7763 13.4214 13.8806 13.3064 13.9827C13.1918 14.0845 13.0738 14.183 12.9535 14.2777C12.8328 14.3728 12.7097 14.4646 12.584 14.5521C12.4586 14.64 12.3298 14.7243 12.1996 14.8046L12.1994 14.8047C12.0688 14.8851 11.9361 14.962 11.801 15.0348L11.8008 15.0349C11.6657 15.1077 11.5287 15.1767 11.3898 15.2414C11.2507 15.3068 11.1104 15.3674 10.9676 15.4243C10.8251 15.4815 10.6809 15.5338 10.5356 15.5825C10.3899 15.6313 10.2431 15.6755 10.095 15.7157C9.94653 15.756 9.79808 15.7916 9.64767 15.8235C9.49745 15.8548 9.34646 15.882 9.19476 15.9048C9.04352 15.928 8.89033 15.9464 8.73791 15.9602C8.58555 15.9745 8.43218 15.9844 8.27929 15.9897L8.27882 15.9897C8.1257 15.9947 7.97169 15.9956 7.81872 15.992C7.66542 15.9884 7.51235 15.9808 7.35956 15.9683L7.35916 15.9683C7.20623 15.9562 7.05369 15.9392 6.90166 15.9178C6.74995 15.8972 6.59901 15.8713 6.44853 15.8419L6.44799 15.8418C6.29711 15.8117 6.14837 15.7779 5.99941 15.7394C5.8511 15.7006 5.70333 15.658 5.55747 15.6111C5.41165 15.5643 5.26641 15.5131 5.12352 15.4578C4.98073 15.4029 4.83892 15.3433 4.69924 15.2799C4.55938 15.2163 4.4219 15.149 4.28572 15.0779C4.1498 15.0067 4.01644 14.9313 3.88467 14.8525L0.501681 15.9799C0.462572 15.9933 0.42238 16 0.381032 16C0.366226 16 0.351203 15.9987 0.336542 15.9969L0.336145 15.9969C0.321014 15.9956 0.306569 15.9929 0.291944 15.9893C0.27703 15.9857 0.262874 15.9813 0.248682 15.9758C0.234598 15.9705 0.221165 15.9648 0.207804 15.9581L0.207623 15.958C0.194262 15.9513 0.181225 15.9433 0.168911 15.9349L0.168694 15.9347C0.156128 15.9267 0.144355 15.9178 0.133052 15.908L0.132872 15.9079C0.121533 15.8977 0.110699 15.8873 0.100588 15.8762C0.0904764 15.8655 0.0808707 15.8538 0.0719511 15.8413C0.0631759 15.8292 0.0552313 15.8168 0.0478645 15.8037C0.0404977 15.7903 0.0340698 15.777 0.0284725 15.7631C0.0226946 15.7488 0.0180001 15.7349 0.0138111 15.7202C0.0099833 15.7059 0.00666101 15.691 0.00456653 15.6759C0.00211093 15.6612 0.000702561 15.6464 0.000160892 15.6312C-0.00020023 15.6165 -1.96602e-05 15.6013 0.00138869 15.5865C0.00265261 15.5713 0.00489154 15.5566 0.0078527 15.5419V15.5418C0.0108139 15.527 0.0148223 15.5123 0.019589 15.4985L1.14758 12.115C1.05661 11.9644 0.970773 11.8108 0.890099 11.6543L0.889991 11.6541C0.809137 11.4976 0.733771 11.3391 0.663534 11.1776C0.593405 11.0159 0.528512 10.8525 0.469 10.6868C0.409452 10.521 0.355681 10.3533 0.307328 10.1844C0.258938 10.0149 0.216326 9.84414 0.179347 9.67203C0.142333 9.49992 0.110735 9.32702 0.0852041 9.15263C0.0595286 8.97828 0.0398116 8.80347 0.0256558 8.62829C0.0117167 8.45257 0.00330261 8.27699 0.000883127 8.10088C-0.00157247 7.92469 0.00174981 7.74893 0.0109944 7.57285C0.0200585 7.3972 0.035081 7.22156 0.0558813 7.04717C0.0768262 6.87246 0.103404 6.69801 0.135652 6.52507C0.167828 6.35198 0.20589 6.18049 0.249332 6.00968C0.292991 5.83938 0.342248 5.6703 0.397065 5.50278C0.451775 5.33547 0.511901 5.17026 0.577805 5.007C0.643672 4.84381 0.714668 4.6825 0.790972 4.52379C0.867349 4.36551 0.948853 4.20955 1.03563 4.05618C1.1223 3.90281 1.21373 3.7527 1.31051 3.60561C1.40697 3.45824 1.50859 3.31448 1.61465 3.17426C1.72053 3.03357 1.8315 2.89656 1.94644 2.76341C2.06138 2.63038 2.18106 2.50088 2.30474 2.3759C2.42857 2.25063 2.55619 2.12962 2.68785 2.01247C2.81959 1.8959 2.95511 1.78341 3.094 1.67544C3.23339 1.56743 3.3756 1.46502 3.52178 1.36611C3.668 1.26756 3.81652 1.17446 3.96881 1.08581C4.12095 0.996863 4.27565 0.9133 4.43313 0.83519L4.43349 0.835082C4.59155 0.756611 4.75102 0.683557 4.91367 0.615523C5.0765 0.54803 5.24081 0.485917 5.40732 0.42868C5.57408 0.37184 5.74236 0.320526 5.91249 0.274953C6.08221 0.228838 6.25367 0.189079 6.42618 0.154231C6.59933 0.119744 6.77213 0.0911798 6.94705 0.0683572C7.12183 0.0451373 7.29669 0.0281287 7.47248 0.0165729C7.64805 0.00537824 7.82406 -0.000435752 8.00018 3.36988e-05ZM8.00018 15.2379C7.65979 15.2379 7.32113 15.2133 6.98407 15.165C6.64732 15.1171 6.31539 15.0456 5.98843 14.9504C5.66165 14.8552 5.34344 14.7372 5.03309 14.5968C4.72286 14.4569 4.4245 14.2956 4.13698 14.1127C4.07483 14.0734 4.00687 14.0537 3.93316 14.0537C3.89178 14.0537 3.8517 14.0604 3.81255 14.0734L0.983087 15.0166L1.92654 12.1874C1.94435 12.1329 1.94991 12.0775 1.94294 12.0207C1.93615 11.9639 1.91748 11.9111 1.88689 11.8629L1.88675 11.8626C1.81629 11.7506 1.74869 11.637 1.68434 11.521C1.61992 11.4052 1.55874 11.2879 1.50068 11.1686C1.44293 11.0494 1.38812 10.9285 1.33684 10.8066C1.28556 10.6841 1.23749 10.5607 1.193 10.436C1.14851 10.311 1.10738 10.1851 1.06968 10.0583C1.03216 9.93091 0.998073 9.80297 0.967378 9.67383C0.936828 9.5452 0.909744 9.41531 0.886343 9.28495L0.886307 9.28484C0.862763 9.15433 0.843045 9.02343 0.826795 8.89205C0.810581 8.7606 0.798014 8.62876 0.78895 8.49637C0.779994 8.3641 0.774578 8.23171 0.772844 8.0994C0.771111 7.96676 0.773025 7.83426 0.778586 7.7021C0.784003 7.56931 0.793283 7.4374 0.805995 7.30559C0.818959 7.17327 0.83539 7.0423 0.855432 6.91128C0.87551 6.78031 0.899055 6.64976 0.926355 6.52016C0.953367 6.39019 0.98417 6.26167 1.01851 6.13344C1.05271 6.00531 1.0907 5.87813 1.13187 5.75267L1.13194 5.75249C1.17329 5.62639 1.21774 5.50188 1.26599 5.37845C1.31427 5.25448 1.3654 5.13329 1.42033 5.01235C1.47529 4.89173 1.53332 4.77274 1.59475 4.65477C1.65614 4.53708 1.72056 4.42199 1.78842 4.30791C1.85616 4.19395 1.92708 4.08218 2.00093 3.97215C2.07464 3.86197 2.15174 3.75389 2.2314 3.64804C2.31146 3.54245 2.39368 3.43903 2.47934 3.33788C2.56489 3.23637 2.65333 3.13757 2.74426 3.04151C2.83522 2.94488 2.92864 2.85106 3.02485 2.75991C3.12069 2.66866 3.21942 2.57964 3.32046 2.49431L3.32064 2.49413C3.4215 2.40825 3.52449 2.32541 3.63008 2.24535C3.73563 2.16483 3.84321 2.08802 3.95313 2.0133C4.06284 1.93909 4.17464 1.86817 4.2884 1.80013C4.40175 1.73228 4.5176 1.66681 4.63482 1.60527C4.75167 1.54378 4.8712 1.4848 4.99135 1.42952C5.11196 1.37452 5.23362 1.32274 5.35702 1.27402C5.48052 1.22567 5.60474 1.18064 5.73066 1.13896C5.85644 1.09743 5.98348 1.0589 6.11135 1.02413L6.11186 1.02395C6.23951 0.989568 6.36796 0.958332 6.49761 0.931139C6.62728 0.902936 6.75725 0.879283 6.88837 0.858771L6.8888 0.858663C7.01946 0.838152 7.15119 0.821576 7.28246 0.808179C7.41445 0.794781 7.54672 0.785356 7.679 0.779145C7.8116 0.773331 7.94352 0.771128 8.07645 0.772392C8.20919 0.773331 8.34122 0.778712 8.4735 0.787198C8.60606 0.79572 8.73733 0.808107 8.86917 0.823815H8.86964C9.00127 0.839524 9.13199 0.859133 9.26243 0.881955L9.26301 0.882064C9.39344 0.905247 9.52276 0.931609 9.65164 0.962015C9.78089 0.991952 9.90872 1.0259 10.0362 1.06306C10.1636 1.10014 10.2891 1.14062 10.4144 1.18501C10.539 1.22928 10.6632 1.27669 10.7855 1.32765L10.7859 1.32783C10.908 1.37867 11.0286 1.43277 11.148 1.49033C11.2675 1.54804 11.385 1.60878 11.501 1.67273L11.5015 1.67302C11.6174 1.73726 11.7313 1.80421 11.8435 1.87438C11.9559 1.94501 12.0661 2.01785 12.1745 2.09477L12.1748 2.09495C12.2827 2.17075 12.3892 2.25052 12.4928 2.33253C12.5966 2.41472 12.6985 2.49976 12.7975 2.5873C12.8969 2.67541 12.9938 2.76619 13.0879 2.85864C13.1823 2.9521 13.2739 3.04769 13.3629 3.14616L13.3632 3.14642C13.4524 3.24442 13.5382 3.34445 13.6217 3.4478C13.7055 3.5504 13.7856 3.65545 13.8636 3.76295C13.9412 3.8702 14.0162 3.97984 14.0878 4.09114C14.1593 4.20236 14.228 4.31597 14.2934 4.43124C14.3589 4.54614 14.4212 4.66329 14.4803 4.7817C14.5394 4.90058 14.5952 5.02087 14.6476 5.14242C14.7 5.26419 14.7489 5.38733 14.7948 5.51166C14.8405 5.63611 14.8826 5.76145 14.9213 5.88856C14.9604 6.01513 14.9956 6.14225 15.0272 6.27167C15.059 6.39987 15.0873 6.52969 15.1119 6.65966C15.1365 6.78962 15.1576 6.92082 15.1751 7.05208C15.1925 7.18353 15.2064 7.31537 15.2164 7.44729C15.2268 7.57968 15.2333 7.71188 15.2364 7.84427C15.2394 7.97691 15.2384 8.1094 15.2343 8.24204C15.2299 8.37435 15.2219 8.50627 15.2101 8.63855V8.63883C15.1986 8.77068 15.1834 8.90231 15.1646 9.03332C15.1459 9.1643 15.1234 9.2952 15.0974 9.42488V9.42492C15.0714 9.55495 15.0418 9.6842 15.0085 9.81243C14.9755 9.9407 14.9388 10.0681 14.8989 10.1942C14.8587 10.3207 14.8151 10.4459 14.7682 10.5697C14.7211 10.6934 14.6707 10.816 14.617 10.9371C14.5634 11.0582 14.5063 11.1781 14.4459 11.2961C14.3857 11.4141 14.3221 11.5303 14.2554 11.6447C14.1888 11.7596 14.119 11.8718 14.0462 11.9827V11.9828C13.9733 12.0934 13.8971 12.2019 13.8185 12.3086L13.8184 12.3087C13.7394 12.4151 13.6579 12.5191 13.5734 12.621L13.5733 12.6211C13.4887 12.7236 13.4016 12.823 13.3112 12.9201L13.3111 12.9202C13.2213 13.0176 13.1284 13.1124 13.0334 13.2044L13.0333 13.2045C12.938 13.2965 12.8402 13.386 12.7401 13.4726C12.6401 13.5592 12.5374 13.6434 12.4328 13.7243L12.4326 13.7245C12.3278 13.8056 12.2208 13.884 12.112 13.959C12.003 14.034 11.8915 14.1065 11.7786 14.1753C11.6658 14.2445 11.5505 14.3108 11.4341 14.3738C11.3174 14.4363 11.199 14.4959 11.079 14.5521C10.9592 14.6084 10.8374 14.6617 10.7147 14.7113C10.5918 14.7609 10.4676 14.807 10.3422 14.8499C10.2171 14.8927 10.0902 14.9322 9.96282 14.9679C9.83505 15.0037 9.70682 15.0363 9.5774 15.0649C9.44808 15.0935 9.3179 15.1189 9.18717 15.1409C9.05638 15.1624 8.92547 15.1802 8.79345 15.1945C8.66189 15.2092 8.52972 15.22 8.39723 15.2271C8.26495 15.2343 8.13264 15.2379 8.00018 15.2379ZM8.00018 15.2379C8.13264 15.2379 8.26495 15.2343 8.39723 15.2271C8.52972 15.22 8.66189 15.2092 8.79345 15.1945C8.92547 15.1802 9.05638 15.1624 9.18717 15.1409C9.3179 15.1189 9.44808 15.0935 9.5774 15.0649C9.70682 15.0363 9.83505 15.0037 9.96282 14.9679C10.0902 14.9322 10.2171 14.8927 10.3422 14.8499C10.4676 14.807 10.5918 14.7609 10.7147 14.7113C10.8374 14.6617 10.9592 14.6084 11.079 14.5521C11.199 14.4959 11.3174 14.4363 11.4341 14.3738C11.5505 14.3108 11.6658 14.2445 11.7786 14.1753C11.8915 14.1065 12.003 14.034 12.112 13.959C12.2208 13.884 12.3278 13.8056 12.4326 13.7245L12.4328 13.7243C12.5374 13.6434 12.6401 13.5592 12.7401 13.4726C12.8402 13.386 12.938 13.2965 13.0333 13.2045L13.0334 13.2044C13.1284 13.1124 13.2213 13.0176 13.3111 12.9202L13.3112 12.9201C13.4016 12.823 13.4887 12.7236 13.5733 12.6211L13.5734 12.621C13.6579 12.5191 13.7394 12.4151 13.8184 12.3087L13.8185 12.3086C13.8971 12.2019 13.9733 12.0934 14.0462 11.9828V11.9827C14.119 11.8718 14.1888 11.7596 14.2554 11.6447C14.3221 11.5303 14.3857 11.4141 14.4459 11.2961C14.5063 11.1781 14.5634 11.0582 14.617 10.9371C14.6707 10.816 14.7211 10.6934 14.7682 10.5697C14.8151 10.4459 14.8587 10.3207 14.8989 10.1942C14.9388 10.0681 14.9755 9.9407 15.0085 9.81243C15.0418 9.6842 15.0714 9.55495 15.0974 9.42492V9.42488C15.1234 9.2952 15.1459 9.1643 15.1646 9.03332C15.1834 8.90231 15.1986 8.77068 15.2101 8.63883V8.63855C15.2219 8.50627 15.2299 8.37435 15.2343 8.24204C15.2384 8.1094 15.2394 7.97691 15.2364 7.84427C15.2333 7.71188 15.2268 7.57968 15.2164 7.44729C15.2064 7.31537 15.1925 7.18353 15.1751 7.05208C15.1576 6.92082 15.1365 6.78962 15.1119 6.65966C15.0873 6.52969 15.059 6.39987 15.0272 6.27167C14.9956 6.14225 14.9604 6.01513 14.9213 5.88856C14.8826 5.76145 14.8405 5.63611 14.7948 5.51166C14.7489 5.38733 14.7 5.26419 14.6476 5.14242C14.5952 5.02087 14.5394 4.90058 14.4803 4.7817C14.4212 4.66329 14.3589 4.54614 14.2934 4.43124C14.228 4.31597 14.1593 4.20236 14.0878 4.09114C14.0162 3.97984 13.9412 3.8702 13.8636 3.76295C13.7856 3.65545 13.7055 3.5504 13.6217 3.4478C13.5382 3.34445 13.4524 3.24442 13.3632 3.14642L13.3629 3.14616C13.2739 3.04769 13.1823 2.9521 13.0879 2.85864C12.9938 2.76619 12.8969 2.67541 12.7975 2.5873C12.6985 2.49976 12.5966 2.41472 12.4928 2.33253C12.3892 2.25052 12.2827 2.17075 12.1748 2.09495L12.1745 2.09477C12.0661 2.01785 11.9559 1.94501 11.8435 1.87438C11.7313 1.80421 11.6174 1.73726 11.5015 1.67302L11.501 1.67273C11.385 1.60878 11.2675 1.54804 11.148 1.49033C11.0286 1.43277 10.908 1.37867 10.7859 1.32783L10.7855 1.32765C10.6632 1.27669 10.539 1.22928 10.4144 1.18501C10.2891 1.14062 10.1636 1.10014 10.0362 1.06306C9.90872 1.0259 9.78089 0.991952 9.65164 0.962015C9.52276 0.931609 9.39344 0.905247 9.26301 0.882064L9.26243 0.881955C9.13199 0.859133 9.00127 0.839524 8.86964 0.823815H8.86917C8.73733 0.808107 8.60606 0.79572 8.4735 0.787198C8.34122 0.778712 8.20919 0.773331 8.07645 0.772392C7.94352 0.771128 7.8116 0.773331 7.679 0.779145C7.54672 0.785356 7.41445 0.794781 7.28246 0.808179C7.15119 0.821576 7.01946 0.838152 6.8888 0.858663L6.88837 0.858771C6.75725 0.879283 6.62728 0.902936 6.49761 0.931139C6.36796 0.958332 6.23951 0.989568 6.11186 1.02395L6.11135 1.02413C5.98348 1.0589 5.85644 1.09743 5.73066 1.13896C5.60474 1.18064 5.48052 1.22567 5.35702 1.27402C5.23362 1.32274 5.11196 1.37452 4.99135 1.42952C4.8712 1.4848 4.75167 1.54378 4.63482 1.60527C4.5176 1.66681 4.40175 1.73228 4.2884 1.80013C4.17464 1.86817 4.06284 1.93909 3.95313 2.0133C3.84321 2.08802 3.73563 2.16483 3.63008 2.24535C3.52449 2.32541 3.4215 2.40825 3.32064 2.49413L3.32046 2.49431C3.21942 2.57964 3.12069 2.66866 3.02485 2.75991C2.92864 2.85106 2.83522 2.94488 2.74426 3.04151C2.65333 3.13757 2.56489 3.23637 2.47934 3.33788C2.39368 3.43903 2.31146 3.54245 2.2314 3.64804C2.15174 3.75389 2.07464 3.86197 2.00093 3.97215C1.92708 4.08218 1.85616 4.19395 1.78842 4.30791C1.72056 4.42199 1.65614 4.53708 1.59475 4.65477C1.53332 4.77274 1.47529 4.89173 1.42033 5.01235C1.3654 5.13329 1.31427 5.25448 1.26599 5.37845C1.21774 5.50188 1.17329 5.62639 1.13194 5.75249L1.13187 5.75267C1.0907 5.87813 1.05271 6.00531 1.01851 6.13344C0.98417 6.26167 0.953367 6.39019 0.926355 6.52016C0.899055 6.64976 0.87551 6.78031 0.855432 6.91128C0.83539 7.0423 0.818959 7.17327 0.805995 7.30559C0.793283 7.4374 0.784003 7.56931 0.778586 7.7021C0.773025 7.83426 0.771111 7.96676 0.772844 8.0994C0.774578 8.23171 0.779994 8.3641 0.78895 8.49637C0.798014 8.62876 0.810581 8.7606 0.826795 8.89205C0.843045 9.02343 0.862763 9.15433 0.886307 9.28484L0.886343 9.28495C0.909744 9.41531 0.936828 9.5452 0.967378 9.67383C0.998073 9.80297 1.03216 9.93091 1.06968 10.0583C1.10738 10.1851 1.14851 10.311 1.193 10.436C1.23749 10.5607 1.28556 10.6841 1.33684 10.8066C1.38812 10.9285 1.44293 11.0494 1.50068 11.1686C1.55874 11.2879 1.61992 11.4052 1.68434 11.521C1.74869 11.637 1.81629 11.7506 1.88675 11.8626L1.88689 11.8629C1.91748 11.9111 1.93615 11.9639 1.94294 12.0207C1.94991 12.0775 1.94435 12.1329 1.92654 12.1874L0.983087 15.0166L3.81255 14.0734C3.8517 14.0604 3.89178 14.0537 3.93316 14.0537C4.00687 14.0537 4.07483 14.0734 4.13698 14.1127C4.4245 14.2956 4.72286 14.4569 5.03309 14.5968C5.34344 14.7372 5.66165 14.8552 5.98843 14.9504C6.31539 15.0456 6.64732 15.1171 6.98407 15.165C7.32113 15.2133 7.65979 15.2379 8.00018 15.2379ZM4.95242 7.99976C4.95242 8.02479 4.95123 8.04985 4.94895 8.07444C4.94635 8.0994 4.94267 8.1241 4.93776 8.14869C4.93306 8.17281 4.92696 8.1973 4.91981 8.22106C4.91244 8.24482 4.90407 8.2684 4.89442 8.29122C4.88503 8.31444 4.87435 8.3368 4.86254 8.35919C4.8508 8.3811 4.83809 8.40209 4.82408 8.42307L4.82404 8.42317C4.81028 8.44369 4.79548 8.46373 4.77955 8.48298C4.7637 8.50266 4.74702 8.52107 4.72928 8.53844C4.71173 8.55646 4.69335 8.57282 4.67393 8.58893C4.65475 8.60453 4.6346 8.61933 4.61384 8.6332L4.61373 8.63327C4.593 8.64707 4.57173 8.6601 4.54974 8.67166C4.52746 8.68376 4.50539 8.69441 4.48221 8.70384C4.45928 8.71315 4.43548 8.72175 4.41179 8.72886L4.41147 8.72897C4.38774 8.73608 4.3634 8.74229 4.33935 8.74717C4.3149 8.75208 4.28999 8.75569 4.26532 8.75789C4.24076 8.7606 4.21531 8.76151 4.19057 8.76151C4.16572 8.76151 4.1407 8.7606 4.116 8.75789C4.09119 8.75569 4.06631 8.75208 4.04197 8.74717C4.01723 8.74229 3.99336 8.73608 3.96953 8.72886L3.96931 8.72879C3.94548 8.72167 3.92193 8.71315 3.899 8.70384C3.87596 8.69441 3.85354 8.68376 3.8314 8.67166C3.80934 8.66 3.78818 8.64707 3.76734 8.6332C3.74647 8.61933 3.72671 8.60471 3.70725 8.58893C3.68807 8.57282 3.66951 8.55628 3.65189 8.53844C3.63434 8.52107 3.61744 8.50266 3.60162 8.48298C3.58577 8.46384 3.57082 8.44351 3.55724 8.42307C3.54327 8.40209 3.53041 8.3811 3.51867 8.35919C3.50679 8.3368 3.49628 8.31444 3.48672 8.29122C3.47711 8.2684 3.46873 8.24475 3.46158 8.22106C3.45425 8.1973 3.44815 8.17281 3.44327 8.14869C3.43833 8.1241 3.43468 8.09951 3.4324 8.07444C3.4298 8.04985 3.42872 8.02479 3.42872 7.99976C3.42872 7.9747 3.4298 7.95022 3.4324 7.92516C3.43468 7.9001 3.43833 7.8755 3.44327 7.85138C3.44811 7.8269 3.45429 7.80256 3.46158 7.77854C3.46873 7.75485 3.47711 7.73109 3.48672 7.70838L3.48675 7.70827C3.49632 7.68505 3.50679 7.6627 3.51867 7.64089V7.64078C3.53041 7.61842 3.54327 7.59752 3.55724 7.57643C3.57089 7.55591 3.5857 7.53576 3.60162 7.51655C3.61755 7.49684 3.63423 7.47864 3.65189 7.46116C3.66951 7.44332 3.68804 7.42667 3.70725 7.41107C3.72661 7.39496 3.74658 7.38027 3.76734 7.3664L3.76745 7.36633C3.78818 7.35253 3.80945 7.3395 3.8314 7.32787H3.83147C3.85347 7.31584 3.87614 7.30559 3.899 7.29577L3.89929 7.29569C3.92219 7.28627 3.94573 7.27785 3.96953 7.27074L3.96985 7.27063C3.99362 7.26341 4.01734 7.25731 4.04197 7.25243C4.06631 7.24752 4.09119 7.24391 4.116 7.2416C4.14081 7.239 4.16565 7.2381 4.19057 7.2381C4.21545 7.2381 4.24062 7.239 4.26532 7.2416C4.2902 7.24391 4.31469 7.24741 4.33935 7.25243C4.36376 7.25731 4.38778 7.26352 4.41179 7.27074L4.41204 7.27081C4.43573 7.27793 4.45924 7.28634 4.48221 7.29577L4.48264 7.29587C4.50539 7.30566 4.52785 7.31602 4.54974 7.32787C4.57187 7.33961 4.593 7.35253 4.61384 7.3664C4.63467 7.38027 4.65471 7.39496 4.67393 7.41107C4.69328 7.42667 4.71181 7.44325 4.72928 7.46116C4.74712 7.47864 4.76363 7.49684 4.77955 7.51655L4.7797 7.51673C4.79551 7.53587 4.81039 7.55602 4.82408 7.57643C4.83805 7.59752 4.85084 7.6185 4.86254 7.64089C4.87438 7.66281 4.885 7.68505 4.89442 7.70838C4.90407 7.73109 4.91244 7.75485 4.91981 7.77854C4.92696 7.80274 4.93306 7.82679 4.93776 7.85138C4.94267 7.8755 4.94635 7.9001 4.94895 7.92516C4.95123 7.95011 4.95242 7.97481 4.95242 7.99976ZM4.95242 7.99976C4.95242 7.97481 4.95123 7.95011 4.94895 7.92516C4.94635 7.9001 4.94267 7.8755 4.93776 7.85138C4.93306 7.82679 4.92696 7.80274 4.91981 7.77854C4.91244 7.75485 4.90407 7.73109 4.89442 7.70838C4.885 7.68505 4.87438 7.66281 4.86254 7.64089C4.85084 7.6185 4.83805 7.59752 4.82408 7.57643C4.81039 7.55602 4.79551 7.53587 4.7797 7.51673L4.77955 7.51655C4.76363 7.49684 4.74712 7.47864 4.72928 7.46116C4.71181 7.44325 4.69328 7.42667 4.67393 7.41107C4.65471 7.39496 4.63467 7.38027 4.61384 7.3664C4.593 7.35253 4.57187 7.33961 4.54974 7.32787C4.52785 7.31602 4.50539 7.30566 4.48264 7.29587L4.48221 7.29577C4.45924 7.28634 4.43573 7.27793 4.41204 7.27081L4.41179 7.27074C4.38778 7.26352 4.36376 7.25731 4.33935 7.25243C4.31469 7.24741 4.2902 7.24391 4.26532 7.2416C4.24062 7.239 4.21545 7.2381 4.19057 7.2381C4.16565 7.2381 4.14081 7.239 4.116 7.2416C4.09119 7.24391 4.06631 7.24752 4.04197 7.25243C4.01734 7.25731 3.99362 7.26341 3.96985 7.27063L3.96953 7.27074C3.94573 7.27785 3.92219 7.28627 3.89929 7.29569L3.899 7.29577C3.87614 7.30559 3.85347 7.31584 3.83147 7.32787H3.8314C3.80945 7.3395 3.78818 7.35253 3.76745 7.36633L3.76734 7.3664C3.74658 7.38027 3.72661 7.39496 3.70725 7.41107C3.68804 7.42667 3.66951 7.44332 3.65189 7.46116C3.63423 7.47864 3.61755 7.49684 3.60162 7.51655C3.5857 7.53576 3.57089 7.55591 3.55724 7.57643C3.54327 7.59752 3.53041 7.61842 3.51867 7.64078V7.64089C3.50679 7.6627 3.49632 7.68505 3.48675 7.70827L3.48672 7.70838C3.47711 7.73109 3.46873 7.75485 3.46158 7.77854C3.45429 7.80256 3.44811 7.8269 3.44327 7.85138C3.43833 7.8755 3.43468 7.9001 3.4324 7.92516C3.4298 7.95022 3.42872 7.9747 3.42872 7.99976C3.42872 8.02479 3.4298 8.04985 3.4324 8.07444C3.43468 8.09951 3.43833 8.1241 3.44327 8.14869C3.44815 8.17281 3.45425 8.1973 3.46158 8.22106C3.46873 8.24475 3.47711 8.2684 3.48672 8.29122C3.49628 8.31444 3.50679 8.3368 3.51867 8.35919C3.53041 8.3811 3.54327 8.40209 3.55724 8.42307C3.57082 8.44351 3.58577 8.46384 3.60162 8.48298C3.61744 8.50266 3.63434 8.52107 3.65189 8.53844C3.66951 8.55628 3.68807 8.57282 3.70725 8.58893C3.72671 8.60471 3.74647 8.61933 3.76734 8.6332C3.78818 8.64707 3.80934 8.66 3.8314 8.67166C3.85354 8.68376 3.87596 8.69441 3.899 8.70384C3.92193 8.71315 3.94548 8.72167 3.96931 8.72879L3.96953 8.72886C3.99336 8.73608 4.01723 8.74229 4.04197 8.74717C4.06631 8.75208 4.09119 8.75569 4.116 8.75789C4.1407 8.7606 4.16572 8.76151 4.19057 8.76151C4.21531 8.76151 4.24076 8.7606 4.26532 8.75789C4.28999 8.75569 4.3149 8.75208 4.33935 8.74717C4.3634 8.74229 4.38774 8.73608 4.41147 8.72897L4.41179 8.72886C4.43548 8.72175 4.45928 8.71315 4.48221 8.70384C4.50539 8.69441 4.52746 8.68376 4.54974 8.67166C4.57173 8.6601 4.593 8.64707 4.61373 8.63327L4.61384 8.6332C4.6346 8.61933 4.65475 8.60453 4.67393 8.58893C4.69335 8.57282 4.71173 8.55646 4.72928 8.53844C4.74702 8.52107 4.7637 8.50266 4.77955 8.48298C4.79548 8.46373 4.81028 8.44369 4.82404 8.42317L4.82408 8.42307C4.83809 8.40209 4.8508 8.3811 4.86254 8.35919C4.87435 8.3368 4.88503 8.31444 4.89442 8.29122C4.90407 8.2684 4.91244 8.24482 4.91981 8.22106C4.92696 8.1973 4.93306 8.17281 4.93776 8.14869C4.94267 8.1241 4.94635 8.0994 4.94895 8.07444C4.95123 8.04985 4.95242 8.02479 4.95242 7.99976ZM8.76203 7.99976C8.76203 8.02479 8.76084 8.04996 8.75831 8.07444V8.07455C8.75593 8.09951 8.75224 8.1241 8.74733 8.14869C8.74242 8.17281 8.73632 8.1973 8.7292 8.22106C8.7218 8.24475 8.7135 8.2684 8.70407 8.29122C8.69446 8.31444 8.68381 8.3368 8.67208 8.35919C8.66034 8.3811 8.64748 8.40209 8.63362 8.42307C8.61964 8.44369 8.60487 8.46373 8.58898 8.48298C8.57324 8.50266 8.55641 8.52107 8.53886 8.53844C8.52113 8.55636 8.50271 8.57282 8.4835 8.58893C8.46436 8.60453 8.44421 8.61933 8.42348 8.6332L8.4233 8.63327C8.4025 8.64707 8.38116 8.6601 8.35913 8.67166C8.33707 8.68376 8.31497 8.69441 8.29156 8.70384C8.26863 8.71315 8.24505 8.72175 8.22122 8.72886L8.22086 8.72897C8.19717 8.73608 8.17315 8.74229 8.14856 8.74717L8.14838 8.74728C8.12422 8.75208 8.09945 8.75569 8.07486 8.75789C8.05019 8.7606 8.02477 8.76151 8.00018 8.76151C7.9753 8.76151 7.95016 8.7606 7.92539 8.75789C7.90062 8.75569 7.87592 8.75208 7.85162 8.74717C7.82684 8.74229 7.8029 8.73608 7.77896 8.72886C7.7552 8.72175 7.73144 8.71315 7.7085 8.70384C7.68521 8.69441 7.66311 8.68376 7.64094 8.67166C7.61884 8.66 7.59757 8.64707 7.5767 8.6332C7.55597 8.61923 7.53618 8.60471 7.51679 8.58893C7.49747 8.57282 7.47898 8.55628 7.46132 8.53844C7.44373 8.52107 7.42691 8.50266 7.4112 8.48298C7.39538 8.46384 7.38043 8.44351 7.36649 8.42307C7.35284 8.40209 7.33991 8.3811 7.32807 8.35919C7.3164 8.3369 7.30571 8.31444 7.29611 8.29122C7.28668 8.2684 7.27834 8.24475 7.27094 8.22106C7.26379 8.1974 7.25772 8.17281 7.25281 8.14869C7.24794 8.1241 7.24425 8.0994 7.24198 8.07444C7.23934 8.04985 7.23815 8.02479 7.23815 7.99976C7.23815 7.9747 7.23934 7.95022 7.24198 7.92516C7.24425 7.9001 7.24794 7.8755 7.25281 7.85138C7.25772 7.82679 7.26379 7.80267 7.27094 7.77854L7.27097 7.77844C7.27834 7.75478 7.28668 7.73109 7.29611 7.70838C7.30571 7.68516 7.31637 7.6627 7.32807 7.64089L7.3281 7.64078C7.33995 7.61842 7.35284 7.59752 7.36649 7.57643C7.3805 7.55591 7.39531 7.53576 7.4112 7.51655C7.42701 7.49684 7.44366 7.47864 7.46132 7.46116C7.47898 7.44325 7.49747 7.42667 7.51679 7.41107C7.536 7.39496 7.55608 7.38027 7.5767 7.3664C7.59739 7.35253 7.61913 7.3395 7.64094 7.32787H7.64112C7.66304 7.31584 7.68539 7.30559 7.7085 7.29577C7.73144 7.28645 7.7552 7.27785 7.77896 7.27074C7.8029 7.26352 7.82684 7.25731 7.85162 7.25243C7.87592 7.24752 7.90062 7.24391 7.92539 7.2416C7.95016 7.239 7.97523 7.2381 8.00018 7.2381C8.02484 7.2381 8.05001 7.239 8.07486 7.2416C8.09974 7.24391 8.12422 7.24741 8.14856 7.25243C8.17334 7.25731 8.19735 7.26352 8.22122 7.27074C8.24505 7.27785 8.26863 7.28645 8.29156 7.29577C8.31486 7.30559 8.33714 7.31584 8.35913 7.32787C8.38123 7.33961 8.40261 7.35253 8.42348 7.3664C8.44428 7.38027 8.46425 7.39496 8.4835 7.41107C8.50271 7.42667 8.5212 7.44325 8.53886 7.46116L8.53904 7.46127C8.55663 7.47874 8.57324 7.49694 8.58898 7.51655C8.60487 7.53576 8.61964 7.55591 8.63362 7.57643C8.64748 7.59752 8.66034 7.6185 8.67208 7.64089C8.68381 7.66281 8.69436 7.68505 8.70407 7.70838C8.7135 7.73109 8.7218 7.75485 8.7292 7.77854C8.73632 7.80267 8.74242 7.82679 8.74733 7.85138C8.75224 7.8755 8.75593 7.9001 8.75831 7.92516V7.92523C8.76084 7.95022 8.76203 7.97488 8.76203 7.99976ZM8.76203 7.99976C8.76203 7.97488 8.76084 7.95022 8.75831 7.92523V7.92516C8.75593 7.9001 8.75224 7.8755 8.74733 7.85138C8.74242 7.82679 8.73632 7.80267 8.7292 7.77854C8.7218 7.75485 8.7135 7.73109 8.70407 7.70838C8.69436 7.68505 8.68381 7.66281 8.67208 7.64089C8.66034 7.6185 8.64748 7.59752 8.63362 7.57643C8.61964 7.55591 8.60487 7.53576 8.58898 7.51655C8.57324 7.49694 8.55663 7.47874 8.53904 7.46127L8.53886 7.46116C8.5212 7.44325 8.50271 7.42667 8.4835 7.41107C8.46425 7.39496 8.44428 7.38027 8.42348 7.3664C8.40261 7.35253 8.38123 7.33961 8.35913 7.32787C8.33714 7.31584 8.31486 7.30559 8.29156 7.29577C8.26863 7.28645 8.24505 7.27785 8.22122 7.27074C8.19735 7.26352 8.17334 7.25731 8.14856 7.25243C8.12422 7.24741 8.09974 7.24391 8.07486 7.2416C8.05001 7.239 8.02484 7.2381 8.00018 7.2381C7.97523 7.2381 7.95016 7.239 7.92539 7.2416C7.90062 7.24391 7.87592 7.24752 7.85162 7.25243C7.82684 7.25731 7.8029 7.26352 7.77896 7.27074C7.7552 7.27785 7.73144 7.28645 7.7085 7.29577C7.68539 7.30559 7.66304 7.31584 7.64112 7.32787H7.64094C7.61913 7.3395 7.59739 7.35253 7.5767 7.3664C7.55608 7.38027 7.536 7.39496 7.51679 7.41107C7.49747 7.42667 7.47898 7.44325 7.46132 7.46116C7.44366 7.47864 7.42701 7.49684 7.4112 7.51655C7.39531 7.53576 7.3805 7.55591 7.36649 7.57643C7.35284 7.59752 7.33995 7.61842 7.3281 7.64078L7.32807 7.64089C7.31637 7.6627 7.30571 7.68516 7.29611 7.70838C7.28668 7.73109 7.27834 7.75478 7.27097 7.77844L7.27094 7.77854C7.26379 7.80267 7.25772 7.82679 7.25281 7.85138C7.24794 7.8755 7.24425 7.9001 7.24198 7.92516C7.23934 7.95022 7.23815 7.9747 7.23815 7.99976C7.23815 8.02479 7.23934 8.04985 7.24198 8.07444C7.24425 8.0994 7.24794 8.1241 7.25281 8.14869C7.25772 8.17281 7.26379 8.1974 7.27094 8.22106C7.27834 8.24475 7.28668 8.2684 7.29611 8.29122C7.30571 8.31444 7.3164 8.3369 7.32807 8.35919C7.33991 8.3811 7.35284 8.40209 7.36649 8.42307C7.38043 8.44351 7.39538 8.46384 7.4112 8.48298C7.42691 8.50266 7.44373 8.52107 7.46132 8.53844C7.47898 8.55628 7.49747 8.57282 7.51679 8.58893C7.53618 8.60471 7.55597 8.61923 7.5767 8.6332C7.59757 8.64707 7.61884 8.66 7.64094 8.67166C7.66311 8.68376 7.68521 8.69441 7.7085 8.70384C7.73144 8.71315 7.7552 8.72175 7.77896 8.72886C7.8029 8.73608 7.82684 8.74229 7.85162 8.74717C7.87592 8.75208 7.90062 8.75569 7.92539 8.75789C7.95016 8.7606 7.9753 8.76151 8.00018 8.76151C8.02477 8.76151 8.05019 8.7606 8.07486 8.75789C8.09945 8.75569 8.12422 8.75208 8.14838 8.74728L8.14856 8.74717C8.17315 8.74229 8.19717 8.73608 8.22086 8.72897L8.22122 8.72886C8.24505 8.72175 8.26863 8.71315 8.29156 8.70384C8.31497 8.69441 8.33707 8.68376 8.35913 8.67166C8.38116 8.6601 8.4025 8.64707 8.4233 8.63327L8.42348 8.6332C8.44421 8.61933 8.46436 8.60453 8.4835 8.58893C8.50271 8.57282 8.52113 8.55636 8.53886 8.53844C8.55641 8.52107 8.57324 8.50266 8.58898 8.48298C8.60487 8.46373 8.61964 8.44369 8.63362 8.42307C8.64748 8.40209 8.66034 8.3811 8.67208 8.35919C8.68381 8.3368 8.69446 8.31444 8.70407 8.29122C8.7135 8.2684 8.7218 8.24475 8.7292 8.22106C8.73632 8.1973 8.74242 8.17281 8.74733 8.14869C8.75224 8.1241 8.75593 8.09951 8.75831 8.07455V8.07444C8.76084 8.04996 8.76203 8.02479 8.76203 7.99976ZM12.5715 7.99976C12.5715 8.02479 12.5703 8.04985 12.5677 8.07444C12.5654 8.09951 12.5619 8.1241 12.5568 8.14869C12.552 8.17281 12.5459 8.1973 12.5387 8.22106C12.5313 8.24482 12.5231 8.2684 12.5136 8.29122C12.5039 8.31444 12.4934 8.3368 12.4817 8.35919C12.4698 8.381 12.4568 8.40216 12.443 8.42307C12.4293 8.44369 12.4145 8.46373 12.3985 8.48298C12.3827 8.50266 12.3658 8.52107 12.3484 8.53844C12.3305 8.55646 12.3121 8.57282 12.2929 8.58893C12.2736 8.60453 12.2535 8.61941 12.233 8.6332C12.2119 8.64707 12.1908 8.66 12.1687 8.67166C12.1466 8.68376 12.1242 8.69441 12.1012 8.70384L12.1008 8.70402C12.0781 8.71315 12.0544 8.72175 12.0308 8.72886C12.0068 8.73608 11.9828 8.74229 11.9582 8.74717C11.9338 8.75208 11.909 8.75569 11.8841 8.75789C11.8595 8.7606 11.8343 8.76151 11.8096 8.76151C11.7848 8.76151 11.7597 8.7606 11.7348 8.75789C11.7101 8.75569 11.6853 8.75208 11.6609 8.74717C11.6363 8.74229 11.6124 8.73608 11.5885 8.72886C11.5646 8.72175 11.541 8.71315 11.5181 8.70384C11.4947 8.69441 11.4727 8.68376 11.4504 8.67166C11.4283 8.66 11.4072 8.64707 11.3863 8.6332C11.3654 8.61923 11.3455 8.60471 11.3262 8.58893L11.3259 8.58871C11.3066 8.57264 11.2885 8.55628 11.2708 8.53844C11.2531 8.52107 11.2364 8.50266 11.2207 8.48298L11.2206 8.4828C11.2046 8.46366 11.19 8.44369 11.1761 8.42307C11.1622 8.40209 11.1493 8.3811 11.1376 8.35919C11.126 8.3368 11.1151 8.31444 11.1057 8.29122C11.0961 8.2684 11.0877 8.24475 11.0806 8.22106C11.0732 8.1974 11.0671 8.17281 11.0623 8.14869C11.0575 8.12399 11.0538 8.09951 11.0514 8.07444V8.07426C11.049 8.04978 11.0478 8.02479 11.0478 7.99976C11.0478 7.97488 11.049 7.95 11.0514 7.92516C11.0538 7.9001 11.0575 7.87561 11.0623 7.85138C11.0671 7.82679 11.0732 7.80267 11.0806 7.77854C11.0877 7.75485 11.0961 7.73109 11.1057 7.70838C11.1151 7.68505 11.126 7.66281 11.1376 7.64089V7.64078C11.1493 7.61842 11.1623 7.59752 11.1761 7.57643C11.19 7.55591 11.2046 7.53576 11.2207 7.51655C11.2365 7.49684 11.253 7.47864 11.2708 7.46116C11.2885 7.44325 11.3068 7.42678 11.3262 7.41107C11.3454 7.39496 11.3655 7.38027 11.3863 7.3664L11.3864 7.36633C11.4072 7.35253 11.4284 7.3395 11.4506 7.32787C11.4725 7.31584 11.4949 7.30559 11.5181 7.29577C11.541 7.28645 11.5647 7.27785 11.5885 7.27074C11.6124 7.26352 11.6365 7.25731 11.6609 7.25243C11.6853 7.24752 11.7101 7.24391 11.7348 7.2416C11.7598 7.239 11.7847 7.2381 11.8096 7.2381C11.8344 7.2381 11.8594 7.239 11.8841 7.2416C11.9092 7.24391 11.9337 7.24741 11.9582 7.25243C11.9829 7.25731 12.0068 7.26352 12.0308 7.27074C12.0546 7.27785 12.0782 7.28645 12.1012 7.29577C12.124 7.30559 12.1467 7.31584 12.1687 7.32787C12.1908 7.33961 12.2119 7.35253 12.233 7.3664C12.2536 7.38027 12.2735 7.39496 12.2929 7.41107C12.3121 7.42667 12.3306 7.44325 12.3484 7.46116C12.3659 7.47864 12.3826 7.49684 12.3985 7.51655C12.4145 7.53576 12.4293 7.55584 12.443 7.57643C12.4568 7.59752 12.4698 7.6185 12.4817 7.64089C12.4934 7.6627 12.5039 7.68516 12.5136 7.70838C12.523 7.73109 12.5314 7.75485 12.5387 7.77854C12.5459 7.80267 12.552 7.82679 12.5568 7.85138L12.5569 7.85156C12.5619 7.87561 12.5654 7.9002 12.5677 7.92516C12.5703 7.95022 12.5715 7.9747 12.5715 7.99976ZM12.5715 7.99976C12.5715 7.9747 12.5703 7.95022 12.5677 7.92516C12.5654 7.9002 12.5619 7.87561 12.5569 7.85156L12.5568 7.85138C12.552 7.82679 12.5459 7.80267 12.5387 7.77854C12.5314 7.75485 12.523 7.73109 12.5136 7.70838C12.5039 7.68516 12.4934 7.6627 12.4817 7.64089C12.4698 7.6185 12.4568 7.59752 12.443 7.57643C12.4293 7.55584 12.4145 7.53576 12.3985 7.51655C12.3826 7.49684 12.3659 7.47864 12.3484 7.46116C12.3306 7.44325 12.3121 7.42667 12.2929 7.41107C12.2735 7.39496 12.2536 7.38027 12.233 7.3664C12.2119 7.35253 12.1908 7.33961 12.1687 7.32787C12.1467 7.31584 12.124 7.30559 12.1012 7.29577C12.0782 7.28645 12.0546 7.27785 12.0308 7.27074C12.0068 7.26352 11.9829 7.25731 11.9582 7.25243C11.9337 7.24741 11.9092 7.24391 11.8841 7.2416C11.8594 7.239 11.8344 7.2381 11.8096 7.2381C11.7847 7.2381 11.7598 7.239 11.7348 7.2416C11.7101 7.24391 11.6853 7.24752 11.6609 7.25243C11.6365 7.25731 11.6124 7.26352 11.5885 7.27074C11.5647 7.27785 11.541 7.28645 11.5181 7.29577C11.4949 7.30559 11.4725 7.31584 11.4506 7.32787C11.4284 7.3395 11.4072 7.35253 11.3864 7.36633L11.3863 7.3664C11.3655 7.38027 11.3454 7.39496 11.3262 7.41107C11.3068 7.42678 11.2885 7.44325 11.2708 7.46116C11.253 7.47864 11.2365 7.49684 11.2207 7.51655C11.2046 7.53576 11.19 7.55591 11.1761 7.57643C11.1623 7.59752 11.1493 7.61842 11.1376 7.64078V7.64089C11.126 7.66281 11.1151 7.68505 11.1057 7.70838C11.0961 7.73109 11.0877 7.75485 11.0806 7.77854C11.0732 7.80267 11.0671 7.82679 11.0623 7.85138C11.0575 7.87561 11.0538 7.9001 11.0514 7.92516C11.049 7.95 11.0478 7.97488 11.0478 7.99976C11.0478 8.02479 11.049 8.04978 11.0514 8.07426V8.07444C11.0538 8.09951 11.0575 8.12399 11.0623 8.14869C11.0671 8.17281 11.0732 8.1974 11.0806 8.22106C11.0877 8.24475 11.0961 8.2684 11.1057 8.29122C11.1151 8.31444 11.126 8.3368 11.1376 8.35919C11.1493 8.3811 11.1622 8.40209 11.1761 8.42307C11.19 8.44369 11.2046 8.46366 11.2206 8.4828L11.2207 8.48298C11.2364 8.50266 11.2531 8.52107 11.2708 8.53844C11.2885 8.55628 11.3066 8.57264 11.3259 8.58871L11.3262 8.58893C11.3455 8.60471 11.3654 8.61923 11.3863 8.6332C11.4072 8.64707 11.4283 8.66 11.4504 8.67166C11.4727 8.68376 11.4947 8.69441 11.5181 8.70384C11.541 8.71315 11.5646 8.72175 11.5885 8.72886C11.6124 8.73608 11.6363 8.74229 11.6609 8.74717C11.6853 8.75208 11.7101 8.75569 11.7348 8.75789C11.7597 8.7606 11.7848 8.76151 11.8096 8.76151C11.8343 8.76151 11.8595 8.7606 11.8841 8.75789C11.909 8.75569 11.9338 8.75208 11.9582 8.74717C11.9828 8.74229 12.0068 8.73608 12.0308 8.72886C12.0544 8.72175 12.0781 8.71315 12.1008 8.70402L12.1012 8.70384C12.1242 8.69441 12.1466 8.68376 12.1687 8.67166C12.1908 8.66 12.2119 8.64707 12.233 8.6332C12.2535 8.61941 12.2736 8.60453 12.2929 8.58893C12.3121 8.57282 12.3305 8.55646 12.3484 8.53844C12.3658 8.52107 12.3827 8.50266 12.3985 8.48298C12.4145 8.46373 12.4293 8.44369 12.443 8.42307C12.4568 8.40216 12.4698 8.381 12.4817 8.35919C12.4934 8.3368 12.5039 8.31444 12.5136 8.29122C12.5231 8.2684 12.5313 8.24482 12.5387 8.22106C12.5459 8.1973 12.552 8.17281 12.5568 8.14869C12.5619 8.1241 12.5654 8.09951 12.5677 8.07444C12.5703 8.04985 12.5715 8.02479 12.5715 7.99976Z" fill="black"/>
</svg>
