<!-- icon666.com - MILLIONS OF FREE VECTOR ICONS --><svg id="svg8" viewBox="0 0 16.933333 16.933334" xmlns="http://www.w3.org/2000/svg" xmlns:svg="http://www.w3.org/2000/svg"><g id="layer6" stroke-linejoin="round"><g stroke-width="3.78" transform="scale(.265)"><path id="path840" d="m23.998047 32.996094h16.003906v12.136718l-4.451172-2.966796a1.0001006 1.0001006 0 0 0 -.552734-.16211h-11z"></path><path id="path836" d="m53.998047 30h4.001953s.787344.0099 1.548828.390625c.761488.380743 1.447266 1.078941 1.447266 2.605469v10.003906c0 1.52922-.685778 2.224727-1.447266 2.605469-.761484.380742-1.548828.390625-1.548828.390625h-4.001953z"></path><path id="path834" d="m6 30h4.001953v15.996094h-4.001953s-.787344-.0099-1.5488281-.390625c-.7614878-.380742-1.4472657-1.076249-1.4472657-2.605469v-10.003906c0-1.526528.6857779-2.224726 1.4472657-2.605469.7614841-.380733 1.5488281-.390625 1.5488281-.390625z"></path><path id="path832" d="m32 5.9941406c9.637055 0 15.073193 5.1815474 17.539062 10.1132814 2.488755 4.977537 2.466797 9.884765 2.466797 9.884766v19.939453c-1.918-.295843-2.83537-1.331108-3.359375-2.378907-.630818-1.261375-.65039-2.554687-.65039-2.554687v-15.005859s-.02541-4.074538-2.03711-8.097657c-.990024-1.980047-2.360987-3.983129-4.576172-5.470703-2.215184-1.487574-5.234464-2.421875-9.382812-2.421875-4.148347 0-7.167628.934301-9.382812 2.421875-2.215185 1.487574-3.586149 3.490655-4.576172 5.470703-2.011559 4.023119-2.03711 8.097656-2.03711 8.097657v15.005859s-.01946 1.293247-.65039 2.554687c-.524119 1.047848-1.488752 2.121317-3.357422 2.378907v-19.939453s-.02391-4.907231 2.464844-9.884766c2.465866-4.931734 7.902009-10.1132814 17.539062-10.1132814z"></path></g><path id="path850" d="m2.6464844 12.7v2.116406s-.00356.385461.1933594.779297c.1969178.393836.642926.808594 1.3925781.808594h5.0273437c.1469339.000565.2661897-.118691.265625-.265625v-.792969s.00382-.254081-.1269531-.515625c-.130772-.261544-.4115785-.542969-.9316406-.542969-.5233723 0-.8008686.281425-.9316407.542969-.130772.261544-.1269531.515625-.1269531.515625v.529297h-3.1757812c-.5732633 0-.7861109-.248003-.9199219-.515625s-.1367187-.542969-.1367187-.542969l-.00195-2.116406z"></path></g></svg>