<!-- icon666.com - MILLIONS OF FREE VECTOR ICONS --><svg version="1.1" id="Capa_1" xmlns="http://www.w3.org/2000/svg" xmlns:xlink="http://www.w3.org/1999/xlink" x="0px" y="0px" viewBox="0 0 512 512" style="enable-background:new 0 0 512 512;" xml:space="preserve"><g><g><path d="M496.767,38.883H15.233C6.82,38.883,0,45.703,0,54.116v326.083c0,8.413,6.82,15.233,15.233,15.233h167.563v47.219h-55.82 c-8.413,0-15.233,6.82-15.233,15.233c0,8.413,6.82,15.233,15.233,15.233h258.056c8.413,0,15.233-6.82,15.233-15.233 c0-8.413-6.82-15.233-15.233-15.233h-55.82v-47.219h167.555c8.413,0,15.233-6.82,15.233-15.233V54.116 C512,45.703,505.18,38.883,496.767,38.883z M298.744,442.651h-85.483v-47.219h85.483V442.651z M481.534,364.966H30.466v-25.945 h451.067V364.966z M481.534,308.554H30.466V69.349h451.067V308.554z"></path></g></g></svg>